<svg width="144" height="125" viewBox="0 0 144 125" fill="none" xmlns="http://www.w3.org/2000/svg">
<path fill-rule="evenodd" clip-rule="evenodd" d="M92.7711 16.3605C92.7711 13.2035 90.5872 10.5597 87.5299 9.75096C86.8343 6.39178 83.7123 3.84129 80.0564 3.84129H80.0402C78.6652 1.50852 76.0446 0 73.2137 0C70.7309 0 68.4757 1.10488 67.0207 2.90177C66.5117 3.53033 65.7444 3.92159 64.9363 3.95606C62.0784 4.07796 59.6367 5.75557 58.4818 8.1452C58.1105 8.91336 57.407 9.49897 56.5817 9.71521C53.5028 10.5219 51.2299 13.2261 51.2299 16.4382C51.2299 20.2795 54.4814 23.4054 58.4931 23.4054C58.6004 23.4054 58.7298 23.3947 58.8814 23.3822L58.9784 23.3743C60.9358 23.2032 62.8284 23.872 64.1549 25.225C64.6862 25.7687 65.0859 26.3911 65.3491 27.0619C65.7404 28.0592 66.5795 28.9418 67.6508 28.9418H76.2505C77.3483 28.9418 78.2023 28.0172 78.5852 26.9884C78.8623 26.244 79.304 25.5538 79.8946 24.9606C81.1887 23.6387 83.0167 23.0011 84.8931 23.2032C85.1843 23.2343 85.427 23.2499 85.6049 23.2499C89.552 23.2499 92.7711 20.1551 92.7711 16.3605ZM78.8595 31.9433H65.1251C64.5475 31.9433 64.0213 32.4298 63.8801 33.136C63.1628 36.6193 61.773 40.2255 60.0166 43.7638C59.576 44.6513 60.5562 45.6238 61.424 45.1458L66.3317 42.4422C66.6526 42.2539 67.0377 42.2539 67.3714 42.4266C67.7052 42.5992 67.9619 42.9444 68.0774 43.3682L68.7743 45.8929C69.0155 46.7666 70.2086 46.8796 70.6095 46.0667L72.095 43.0543C72.3389 42.5835 72.7882 42.2853 73.2117 42.301C73.6738 42.301 74.0846 42.5992 74.3156 43.0857L78.5362 52.1762C78.9063 52.9734 80.0557 52.9248 80.3571 52.0991L83.5959 43.2269C83.6218 43.1637 83.6303 43.0976 83.6007 43.036C82.0182 39.74 80.7656 36.3842 80.1046 33.136C79.9634 32.4298 79.4371 31.9433 78.8595 31.9433ZM84.1896 50.1272C84.7835 48.5718 86.9404 48.3944 87.8398 49.7956C95.0025 60.9554 104.384 70.1247 104.528 70.2646C104.95 70.6819 105.109 71.3619 104.924 71.98C104.739 72.5982 104.237 73 103.683 73H40.3172C39.7627 73 39.2611 72.5982 39.0763 71.98C38.8914 71.3619 39.0499 70.6819 39.4723 70.2646C39.6026 70.1426 47.6629 62.2569 54.5478 52.2191C54.7303 51.953 54.9745 51.7336 55.2598 51.5829L63.7929 47.0746C64.9001 46.4897 66.2651 47.0712 66.6103 48.2748L67.802 52.4306C67.9604 53.0024 68.3961 53.4042 68.9109 53.466C69.4126 53.5433 69.9142 53.2497 70.1782 52.7397L71.3955 50.3812C72.1404 48.9382 74.2124 48.9631 74.9222 50.4237L78.759 58.3186C78.9966 58.8132 79.4323 59.1068 79.9075 59.1068H79.9735C80.462 59.0759 80.9108 58.7204 81.1088 58.195L84.1896 50.1272Z" fill="white"/>
<path d="M30.1689 97.528C29.7529 97.016 29.5449 96.56 29.5449 96.16C29.5449 95.744 29.8889 95.2 30.5769 94.528C30.9769 94.144 31.4009 93.952 31.8489 93.952C32.2969 93.952 32.9209 94.352 33.7209 95.152C33.9449 95.424 34.2649 95.688 34.6809 95.944C35.0969 96.184 35.4809 96.304 35.8329 96.304C37.3209 96.304 38.0649 95.696 38.0649 94.48C38.0649 94.112 37.8569 93.808 37.4409 93.568C37.0409 93.312 36.5369 93.128 35.9289 93.016C35.3209 92.904 34.6649 92.728 33.9609 92.488C33.2569 92.232 32.6009 91.936 31.9929 91.6C31.3849 91.264 30.8729 90.736 30.4569 90.016C30.0569 89.28 29.8569 88.4 29.8569 87.376C29.8569 85.968 30.3769 84.744 31.4169 83.704C32.4729 82.648 33.9049 82.12 35.7129 82.12C36.6729 82.12 37.5449 82.248 38.3289 82.504C39.1289 82.744 39.6809 82.992 39.9849 83.248L40.5849 83.704C41.0809 84.168 41.3289 84.56 41.3289 84.88C41.3289 85.2 41.1369 85.64 40.7529 86.2C40.2089 87 39.6489 87.4 39.0729 87.4C38.7369 87.4 38.3209 87.24 37.8249 86.92C37.7769 86.888 37.6809 86.808 37.5369 86.68C37.4089 86.552 37.2889 86.448 37.1769 86.368C36.8409 86.16 36.4089 86.056 35.8809 86.056C35.3689 86.056 34.9369 86.184 34.5849 86.44C34.2489 86.68 34.0809 87.024 34.0809 87.472C34.0809 87.904 34.2809 88.256 34.6809 88.528C35.0969 88.8 35.6089 88.984 36.2169 89.08C36.8249 89.176 37.4889 89.328 38.2089 89.536C38.9289 89.728 39.5929 89.968 40.2009 90.256C40.8089 90.544 41.3129 91.048 41.7129 91.768C42.1289 92.472 42.3369 93.344 42.3369 94.384C42.3369 95.424 42.1289 96.344 41.7129 97.144C41.2969 97.928 40.7529 98.536 40.0809 98.968C38.7849 99.816 37.4009 100.24 35.9289 100.24C35.1769 100.24 34.4649 100.152 33.7929 99.976C33.1209 99.784 32.5769 99.552 32.1609 99.28C31.3129 98.768 30.7209 98.272 30.3849 97.792L30.1689 97.528Z" fill="white"/>
<path d="M55.2491 83.152C55.4091 82.864 55.6411 82.672 55.9451 82.576C56.2491 82.48 56.6251 82.432 57.0731 82.432C57.5371 82.432 57.9051 82.472 58.1771 82.552C58.4651 82.632 58.6731 82.728 58.8011 82.84C58.9451 82.952 59.0491 83.12 59.1131 83.344C59.2091 83.6 59.2571 84.008 59.2571 84.568V97.888C59.2571 98.272 59.2411 98.552 59.2091 98.728C59.1931 98.904 59.1211 99.112 58.9931 99.352C58.7691 99.784 58.1451 100 57.1211 100C56.4971 100 56.0651 99.952 55.8251 99.856C55.5851 99.76 55.3851 99.608 55.2251 99.4C51.6251 94.6 49.2571 91.464 48.1211 89.992V97.888C48.1211 98.272 48.1051 98.552 48.0731 98.728C48.0571 98.904 47.9851 99.112 47.8571 99.352C47.6331 99.784 47.0091 100 45.9851 100C44.9931 100 44.3851 99.784 44.1611 99.352C44.0331 99.112 43.9531 98.896 43.9211 98.704C43.9051 98.512 43.8971 98.232 43.8971 97.864V84.472C43.8971 83.864 43.9691 83.424 44.1131 83.152C44.2731 82.864 44.5051 82.672 44.8091 82.576C45.1131 82.48 45.5051 82.432 45.9851 82.432C46.4651 82.432 46.8411 82.48 47.1131 82.576C47.4011 82.656 47.6011 82.752 47.7131 82.864C47.7771 82.912 47.9611 83.12 48.2651 83.488C51.6411 88.08 53.8971 91.112 55.0331 92.584V84.472C55.0331 83.864 55.1051 83.424 55.2491 83.152Z" fill="white"/>
<path d="M71.3225 83.656L77.8026 97.048C78.0746 97.592 78.2105 98 78.2105 98.272C78.2105 98.848 77.7466 99.368 76.8186 99.832C76.2746 100.104 75.8425 100.24 75.5225 100.24C75.2185 100.24 74.9625 100.168 74.7545 100.024C74.5625 99.88 74.4185 99.728 74.3225 99.568C74.2425 99.408 74.1225 99.168 73.9625 98.848L72.7145 96.256H66.0666L64.8186 98.848C64.6586 99.168 64.5305 99.4 64.4345 99.544C64.3545 99.688 64.2105 99.84 64.0025 100C63.8105 100.144 63.5545 100.216 63.2345 100.216C62.9305 100.216 62.5065 100.08 61.9625 99.808C61.0345 99.36 60.5705 98.848 60.5705 98.272C60.5705 98 60.7066 97.592 60.9785 97.048L67.4585 83.632C67.6346 83.264 67.8986 82.968 68.2505 82.744C68.6185 82.52 69.0025 82.408 69.4025 82.408C70.2665 82.408 70.9065 82.824 71.3225 83.656ZM69.3785 89.416L67.7945 92.704H70.9865L69.3785 89.416Z" fill="white"/>
<path d="M89.3188 95.392L89.7508 95.08C90.2948 94.76 90.6788 94.6 90.9028 94.6C91.3988 94.6 91.9348 95.048 92.5108 95.944C92.8628 96.504 93.0388 96.952 93.0388 97.288C93.0388 97.624 92.9268 97.904 92.7028 98.128C92.4948 98.352 92.2468 98.552 91.9588 98.728C91.6708 98.904 91.3908 99.072 91.1188 99.232C90.8628 99.392 90.3268 99.6 89.5108 99.856C88.6948 100.112 87.9028 100.24 87.1348 100.24C86.3828 100.24 85.6148 100.144 84.8308 99.952C84.0628 99.744 83.2628 99.408 82.4308 98.944C81.6148 98.464 80.8788 97.888 80.2228 97.216C79.5668 96.528 79.0228 95.656 78.5908 94.6C78.1748 93.528 77.9668 92.368 77.9668 91.12C77.9668 89.872 78.1748 88.744 78.5908 87.736C79.0068 86.712 79.5348 85.872 80.1748 85.216C80.8308 84.544 81.5748 83.984 82.4068 83.536C83.9748 82.672 85.5508 82.24 87.1348 82.24C87.8868 82.24 88.6468 82.36 89.4148 82.6C90.1988 82.824 90.7908 83.056 91.1908 83.296L91.7668 83.632C92.0548 83.808 92.2788 83.952 92.4388 84.064C92.8548 84.4 93.0628 84.784 93.0628 85.216C93.0628 85.632 92.8948 86.072 92.5588 86.536C91.9348 87.4 91.3748 87.832 90.8788 87.832C90.5908 87.832 90.1828 87.656 89.6548 87.304C88.9828 86.76 88.0868 86.488 86.9668 86.488C85.9268 86.488 84.9028 86.848 83.8948 87.568C83.4148 87.92 83.0148 88.416 82.6948 89.056C82.3748 89.696 82.2148 90.424 82.2148 91.24C82.2148 92.04 82.3748 92.76 82.6948 93.4C83.0148 94.04 83.4228 94.544 83.9188 94.912C84.8948 95.616 85.9108 95.968 86.9668 95.968C87.4628 95.968 87.9268 95.904 88.3588 95.776C88.8068 95.648 89.1268 95.52 89.3188 95.392Z" fill="white"/>
<path d="M102.152 91.168C104.6 93.52 106.336 95.288 107.36 96.472C107.888 97.064 108.152 97.568 108.152 97.984C108.152 98.384 107.832 98.864 107.192 99.424C106.552 99.968 106.024 100.24 105.608 100.24C105.208 100.24 104.72 99.904 104.144 99.232L98.8639 93.208V97.888C98.8639 98.272 98.8479 98.552 98.8159 98.728C98.7999 98.904 98.7279 99.112 98.5999 99.352C98.3759 99.784 97.7519 100 96.7279 100C95.6079 100 94.9519 99.696 94.7599 99.088C94.6639 98.832 94.6159 98.424 94.6159 97.864V84.52C94.6159 84.152 94.6239 83.88 94.6399 83.704C94.6719 83.512 94.7519 83.296 94.8799 83.056C95.1039 82.624 95.7279 82.408 96.7519 82.408C97.8719 82.408 98.5359 82.704 98.7439 83.296C98.8239 83.568 98.8639 83.984 98.8639 84.544V89.128C101.04 86.68 102.8 84.672 104.144 83.104C104.704 82.448 105.192 82.12 105.608 82.12C106.024 82.12 106.552 82.4 107.192 82.96C107.832 83.504 108.152 83.984 108.152 84.4C108.152 84.8 107.912 85.28 107.432 85.84C106.504 86.912 105.064 88.384 103.112 90.256L102.152 91.168Z" fill="white"/>
<path d="M8.79373 106.192C11.1617 106.192 13.2177 107.048 14.9617 108.76C16.7057 110.472 17.5777 112.6 17.5777 115.144C17.5777 117.672 16.7457 119.832 15.0817 121.624C13.4177 123.4 11.3697 124.288 8.93773 124.288C6.50573 124.288 4.43373 123.408 2.72173 121.648C1.02573 119.888 0.177734 117.792 0.177734 115.36C0.177734 114.032 0.417734 112.792 0.897734 111.64C1.37773 110.472 2.01773 109.496 2.81773 108.712C3.61773 107.928 4.53773 107.312 5.57773 106.864C6.61773 106.416 7.68973 106.192 8.79373 106.192ZM4.42573 115.24C4.42573 116.664 4.88173 117.824 5.79373 118.72C6.72173 119.6 7.75373 120.04 8.88973 120.04C10.0257 120.04 11.0497 119.608 11.9617 118.744C12.8737 117.88 13.3297 116.72 13.3297 115.264C13.3297 113.808 12.8657 112.64 11.9377 111.76C11.0257 110.88 10.0017 110.44 8.86573 110.44C7.72973 110.44 6.70573 110.888 5.79373 111.784C4.88173 112.664 4.42573 113.816 4.42573 115.24Z" fill="white"/>
<path d="M35.2422 106.672C36.1862 107.136 36.6582 107.648 36.6582 108.208C36.6582 108.464 36.5382 108.848 36.2982 109.36L29.6742 122.8C29.4982 123.152 29.2262 123.44 28.8582 123.664C28.5062 123.872 28.1382 123.976 27.7542 123.976H27.5142C27.1142 123.976 26.7302 123.872 26.3622 123.664C26.0102 123.44 25.7462 123.152 25.5702 122.8L18.9462 109.36C18.7062 108.848 18.5862 108.464 18.5862 108.208C18.5862 107.648 19.0582 107.136 20.0022 106.672C20.5302 106.4 20.9302 106.264 21.2022 106.264C21.4902 106.264 21.7062 106.296 21.8502 106.36C21.9942 106.424 22.1302 106.536 22.2582 106.696C22.4022 106.888 22.5302 107.104 22.6422 107.344C22.7702 107.568 23.0822 108.232 23.5782 109.336C24.0742 110.424 24.6022 111.584 25.1622 112.816C25.7382 114.048 26.2742 115.216 26.7702 116.32C27.2822 117.408 27.5702 118.016 27.6342 118.144L32.4342 107.632C32.5622 107.328 32.6742 107.088 32.7702 106.912C33.0582 106.48 33.4102 106.264 33.8262 106.264C34.2422 106.264 34.7142 106.4 35.2422 106.672Z" fill="white"/>
<path d="M43.231 119.752H50.6231C50.9911 119.752 51.2631 119.768 51.439 119.8C51.6311 119.816 51.847 119.888 52.087 120.016C52.519 120.24 52.7351 120.864 52.7351 121.888C52.7351 123.008 52.439 123.664 51.847 123.856C51.5751 123.952 51.159 124 50.599 124H41.095C39.975 124 39.319 123.696 39.127 123.088C39.031 122.832 38.983 122.424 38.983 121.864V108.52C38.983 107.704 39.135 107.152 39.439 106.864C39.743 106.56 40.319 106.408 41.167 106.408H50.6231C50.9911 106.408 51.2631 106.424 51.439 106.456C51.6311 106.472 51.847 106.544 52.087 106.672C52.519 106.896 52.7351 107.52 52.7351 108.544C52.7351 109.664 52.439 110.32 51.847 110.512C51.5751 110.608 51.159 110.656 50.599 110.656H43.231V113.08H47.983C48.351 113.08 48.6231 113.096 48.799 113.128C48.9911 113.144 49.207 113.216 49.447 113.344C49.879 113.568 50.095 114.192 50.095 115.216C50.095 116.336 49.791 116.992 49.183 117.184C48.911 117.28 48.495 117.328 47.935 117.328H43.231V119.752Z" fill="white"/>
<path d="M68.7517 121.024C68.9917 121.6 69.1117 122.016 69.1117 122.272C69.1117 122.88 68.6157 123.392 67.6237 123.808C67.1117 124.032 66.6957 124.144 66.3757 124.144C66.0717 124.144 65.8157 124.072 65.6077 123.928C65.4157 123.768 65.2717 123.608 65.1757 123.448C65.0157 123.144 64.3917 121.696 63.3037 119.104L62.5597 119.152H59.5357V121.864C59.5357 122.232 59.5197 122.512 59.4877 122.704C59.4717 122.88 59.3997 123.088 59.2717 123.328C59.0477 123.76 58.4237 123.976 57.3997 123.976C56.2797 123.976 55.6237 123.68 55.4317 123.088C55.3357 122.816 55.2877 122.4 55.2877 121.84V108.52C55.2877 108.152 55.2957 107.88 55.3117 107.704C55.3437 107.512 55.4237 107.296 55.5517 107.056C55.7757 106.624 56.3997 106.408 57.4237 106.408H62.6077C64.0157 106.408 65.3837 106.92 66.7117 107.944C67.3517 108.44 67.8797 109.112 68.2957 109.96C68.7117 110.808 68.9197 111.752 68.9197 112.792C68.9197 114.6 68.3197 116.088 67.1197 117.256C67.4717 118.104 68.0157 119.36 68.7517 121.024ZM59.5357 114.904H62.6077C63.0717 114.904 63.5357 114.728 63.9997 114.376C64.4637 114.024 64.6957 113.496 64.6957 112.792C64.6957 112.088 64.4637 111.56 63.9997 111.208C63.5357 110.84 63.0557 110.656 62.5597 110.656H59.5357V114.904Z" fill="white"/>
<path d="M83.0684 106.408C83.4364 106.408 83.7084 106.424 83.8844 106.456C84.0764 106.472 84.2844 106.544 84.5084 106.672C84.7484 106.8 84.9164 107.016 85.0124 107.32C85.1084 107.624 85.1564 108.032 85.1564 108.544C85.1564 109.056 85.1084 109.464 85.0124 109.768C84.9164 110.072 84.7484 110.288 84.5084 110.416C84.2684 110.528 84.0524 110.6 83.8604 110.632C83.6844 110.648 83.4044 110.656 83.0204 110.656H75.6764V113.08H80.4044C80.7884 113.08 81.0684 113.096 81.2444 113.128C81.4364 113.144 81.6524 113.216 81.8924 113.344C82.3084 113.584 82.5164 114.216 82.5164 115.24C82.5164 116.36 82.2124 117.024 81.6044 117.232C81.3484 117.312 80.9404 117.352 80.3804 117.352H75.6764V121.888C75.6764 122.272 75.6604 122.552 75.6284 122.728C75.6124 122.904 75.5404 123.112 75.4124 123.352C75.1884 123.784 74.5644 124 73.5404 124C72.4204 124 71.7644 123.696 71.5724 123.088C71.4764 122.832 71.4284 122.424 71.4284 121.864V108.52C71.4284 107.704 71.5804 107.152 71.8844 106.864C72.1884 106.56 72.7644 106.408 73.6124 106.408H83.0684Z" fill="white"/>
<path d="M91.9576 120.448H98.4856C99.0136 120.448 99.3976 120.512 99.6376 120.64C99.8776 120.752 100.038 120.936 100.118 121.192C100.198 121.448 100.238 121.792 100.238 122.224C100.238 122.64 100.198 122.976 100.118 123.232C100.038 123.488 99.9016 123.664 99.7096 123.76C99.4056 123.92 98.9896 124 98.4616 124H89.8216C88.7016 124 88.0456 123.696 87.8536 123.088C87.7576 122.832 87.7096 122.424 87.7096 121.864V108.52C87.7096 108.152 87.7176 107.88 87.7336 107.704C87.7656 107.512 87.8456 107.296 87.9736 107.056C88.1976 106.624 88.8216 106.408 89.8456 106.408C90.9656 106.408 91.6296 106.704 91.8376 107.296C91.9176 107.568 91.9576 107.984 91.9576 108.544V120.448Z" fill="white"/>
<path d="M110.052 106.192C112.42 106.192 114.476 107.048 116.22 108.76C117.964 110.472 118.836 112.6 118.836 115.144C118.836 117.672 118.004 119.832 116.34 121.624C114.676 123.4 112.628 124.288 110.196 124.288C107.764 124.288 105.692 123.408 103.98 121.648C102.284 119.888 101.436 117.792 101.436 115.36C101.436 114.032 101.676 112.792 102.156 111.64C102.636 110.472 103.276 109.496 104.076 108.712C104.876 107.928 105.796 107.312 106.836 106.864C107.876 106.416 108.948 106.192 110.052 106.192ZM105.684 115.24C105.684 116.664 106.14 117.824 107.052 118.72C107.98 119.6 109.012 120.04 110.148 120.04C111.284 120.04 112.308 119.608 113.22 118.744C114.132 117.88 114.588 116.72 114.588 115.264C114.588 113.808 114.124 112.64 113.196 111.76C112.284 110.88 111.26 110.44 110.124 110.44C108.988 110.44 107.964 110.888 107.052 111.784C106.14 112.664 105.684 113.816 105.684 115.24Z" fill="white"/>
<path d="M141.453 106.504C142.525 106.888 143.061 107.4 143.061 108.04C143.061 108.248 142.965 108.64 142.773 109.216L138.165 122.536C138.133 122.648 138.077 122.784 137.997 122.944C137.917 123.104 137.701 123.32 137.349 123.592C137.013 123.848 136.605 123.976 136.125 123.976C135.661 123.976 135.253 123.848 134.901 123.592C134.565 123.32 134.341 123.056 134.229 122.8L131.421 114.52C129.645 119.768 128.741 122.44 128.709 122.536C128.677 122.632 128.605 122.768 128.493 122.944C128.381 123.12 128.253 123.28 128.109 123.424C127.741 123.792 127.301 123.976 126.789 123.976C126.277 123.976 125.853 123.856 125.517 123.616C125.197 123.376 124.981 123.136 124.869 122.896L124.701 122.536L120.069 109.216C119.893 108.688 119.805 108.296 119.805 108.04C119.805 107.4 120.341 106.896 121.413 106.528C121.877 106.368 122.293 106.288 122.661 106.288C123.045 106.288 123.333 106.416 123.525 106.672C123.733 106.928 123.917 107.32 124.077 107.848L126.717 115.864L129.333 107.968C129.557 107.296 129.965 106.832 130.557 106.576C130.813 106.464 131.141 106.408 131.541 106.408C131.957 106.408 132.341 106.544 132.693 106.816C133.045 107.072 133.269 107.328 133.365 107.584L136.125 115.912L138.765 107.848C138.893 107.48 138.997 107.208 139.077 107.032C139.157 106.856 139.301 106.688 139.509 106.528C139.733 106.352 140.005 106.264 140.325 106.264C140.645 106.264 141.021 106.344 141.453 106.504Z" fill="white"/>
</svg>
